<?xml version="1.0" encoding="UTF-8"?>
<svg width="700pt" height="700pt" version="1.1" viewBox="0 0 700 700" xmlns="http://www.w3.org/2000/svg">
 <g>
  <path d="m564.12 148.23c0-13.105-5.207-25.672-14.473-34.938s-21.832-14.473-34.938-14.473h-82.355c0-29.422-15.695-56.609-41.176-71.32-25.48-14.711-56.871-14.711-82.352 0-25.48 14.711-41.176 41.898-41.176 71.32h-82.355c-15.574 0.12109-30.18 7.5781-39.41 20.121-9.2344 12.543-12.012 28.707-7.4961 43.613s15.797 26.812 30.438 32.125v259.74c0.042969 23.621 9.4453 46.262 26.145 62.961 16.703 16.699 39.34 26.102 62.961 26.148h184.14c23.621-0.046875 46.258-9.4492 62.961-26.148 16.699-16.699 26.102-39.34 26.145-62.961v-259.74c9.6133-3.3984 17.938-9.6875 23.836-18.004 5.8945-8.3125 9.0781-18.25 9.1055-28.445zm-214.12-98.824c13.105 0 25.672 5.207 34.938 14.473 9.2695 9.2695 14.473 21.836 14.473 34.941h-98.82c0-13.105 5.2031-25.672 14.473-34.941 9.2656-9.2656 21.832-14.473 34.938-14.473zm148.23 405.01c0 14.898-5.918 29.184-16.449 39.715-10.531 10.535-24.82 16.453-39.715 16.453h-184.14c-14.895 0-29.184-5.918-39.715-16.453-10.531-10.531-16.449-24.816-16.449-39.715v-256.77h296.47zm16.473-289.71h-329.41c-5.8828 0-11.32-3.1406-14.262-8.2383-2.9414-5.0938-2.9414-11.371 0-16.469s8.3789-8.2344 14.262-8.2344h329.41c5.8828 0 11.32 3.1367 14.262 8.2344s2.9414 11.375 0 16.469c-2.9414 5.0977-8.3789 8.2383-14.262 8.2383z"/>
  <path d="m350 461.18c4.3672 0 8.5586-1.7344 11.645-4.8242 3.0898-3.0898 4.8242-7.2773 4.8242-11.645v-181.18c0-5.8867-3.1367-11.324-8.2344-14.266-5.0938-2.9414-11.375-2.9414-16.469 0-5.0977 2.9414-8.2344 8.3789-8.2344 14.266v181.18c0 4.3672 1.7344 8.5547 4.8242 11.645 3.0859 3.0898 7.2773 4.8242 11.645 4.8242z"/>
  <path d="m415.88 444.71c4.3672 0 8.5586-1.7383 11.645-4.8242 3.0898-3.0898 4.8242-7.2773 4.8242-11.648v-148.23c0-5.8828-3.1367-11.32-8.2344-14.266-5.0938-2.9414-11.375-2.9414-16.469 0-5.0977 2.9453-8.2383 8.3828-8.2383 14.266v148.23c0 4.3711 1.7383 8.5586 4.8242 11.648 3.0898 3.0859 7.2812 4.8242 11.648 4.8242z"/>
  <path d="m284.12 444.71c4.3672 0 8.5586-1.7383 11.648-4.8242 3.0859-3.0898 4.8242-7.2773 4.8242-11.648v-148.23c0-5.8828-3.1406-11.32-8.2383-14.266-5.0938-2.9414-11.375-2.9414-16.469 0-5.0977 2.9453-8.2344 8.3828-8.2344 14.266v148.23c0 4.3711 1.7344 8.5586 4.8242 11.648 3.0859 3.0859 7.2773 4.8242 11.645 4.8242z"/>
 </g>
</svg>
